name C:\Users\r0593348\3dpredictsim\Results\Batchsim_tmt_linear\Pog_s1_tmt_bCst_d02_k1000_ig24.mot
datacolumns 128
datarows 4
range 1.07503937 1.10729055
endheader
time	pelvis_tilt	pelvis_list	pelvis_rotation	pelvis_tx	pelvis_ty	pelvis_tz	hip_flexion_l	hip_adduction_l	hip_rotation_l	hip_flexion_r	hip_adduction_r	hip_rotation_r	knee_angle_l	knee_angle_r	ankle_angle_l	ankle_angle_r	subtalar_angle_l	subtalar_angle_r	tmt_angle_l	tmt_angle_r	mtp_angle_l	mtp_angle_r	lumbar_extension	lumbar_bending	lumbar_rotation	arm_flex_l	arm_add_l	arm_rot_l	arm_flex_r	arm_add_r	arm_rot_r	elbow_flex_l	elbow_flex_r	pro_sup_l	pro_sup_r	glut_med1_l/activation	glut_med2_l/activation	glut_med3_l/activation	glut_min1_l/activation	glut_min2_l/activation	glut_min3_l/activation	semimem_l/activation	semiten_l/activation	bifemlh_l/activation	bifemsh_l/activation	sar_l/activation	add_long_l/activation	add_brev_l/activation	add_mag1_l/activation	add_mag2_l/activation	add_mag3_l/activation	tfl_l/activation	pect_l/activation	grac_l/activation	glut_max1_l/activation	glut_max2_l/activation	glut_max3_l/activation	iliacus_l/activation	psoas_l/activation	quad_fem_l/activation	gem_l/activation	peri_l/activation	rect_fem_l/activation	vas_med_l/activation	vas_int_l/activation	vas_lat_l/activation	med_gas_l/activation	lat_gas_l/activation	soleus_l/activation	tib_post_l/activation	flex_dig_l/activation	flex_hal_l/activation	tib_ant_l/activation	per_brev_l/activation	per_long_l/activation	per_tert_l/activation	ext_dig_l/activation	ext_hal_l/activation	ercspn_l/activation	intobl_l/activation	extobl_l/activation	glut_med1_r/activation	glut_med2_r/activation	glut_med3_r/activation	glut_min1_r/activation	glut_min2_r/activation	glut_min3_r/activation	semimem_r/activation	semiten_r/activation	bifemlh_r/activation	bifemsh_r/activation	sar_r/activation	add_long_r/activation	add_brev_r/activation	add_mag1_r/activation	add_mag2_r/activation	add_mag3_r/activation	tfl_r/activation	pect_r/activation	grac_r/activation	glut_max1_r/activation	glut_max2_r/activation	glut_max3_r/activation	iliacus_r/activation	psoas_r/activation	quad_fem_r/activation	gem_r/activation	peri_r/activation	rect_fem_r/activation	vas_med_r/activation	vas_int_r/activation	vas_lat_r/activation	med_gas_r/activation	lat_gas_r/activation	soleus_r/activation	tib_post_r/activation	flex_dig_r/activation	flex_hal_r/activation	tib_ant_r/activation	per_brev_r/activation	per_long_r/activation	per_tert_r/activation	ext_dig_r/activation	ext_hal_r/activation	ercspn_r/activation	intobl_r/activation	extobl_r/activation	
          1.07503937	         -2.92966406	         -2.20597208	          5.30736148	          1.34379922	          0.85848705	         -0.00231914	        -18.12364065	         -1.63154358	          7.14035579	         31.65045372	          3.09148044	         -1.84686126	         -6.01946198	        -14.63109751	          1.43166553	          7.38119518	          9.61615252	         -3.03776986	          1.02370135	          0.03515697	         20.67949893	         -0.12688351	         -2.00562276	          0.55203383	         -1.92422473	          7.82810816	        -13.45205759	         17.13069974	         -8.54451779	        -13.51429967	          7.10066165	         34.87047086	         14.01398030	         86.51662706	         86.51662706	          0.32708675	          0.11398759	          0.08197898	          0.33407842	          0.22157166	          0.11398777	          0.05000020	          0.05000003	          0.05000002	          0.07659482	          0.11398795	          0.05000002	          0.05000002	          0.05000002	          0.05000007	          0.05000006	          0.32887638	          0.05000010	          0.05000007	          0.05000181	          0.05000066	          0.05000019	          0.38694084	          0.63787402	          0.05000003	          0.05000011	          0.05433779	          0.20057576	          0.05000046	          0.05000019	          0.05000020	          0.33218608	          0.44631103	          0.31532791	          0.27493948	          0.29054937	          0.38638541	          0.05000000	          0.05952587	          0.15906618	          0.05000004	          0.05000000	          0.05000003	          0.05000000	          0.05000000	          0.05000000	          0.05000018	          0.05000003	          0.05895850	          0.05000002	          0.05000003	          0.05000016	          0.05895867	          0.05895868	          0.20756335	          0.05000007	          0.05000018	          0.10991798	          0.15979099	          0.19463592	          0.16049823	          0.11228312	          0.05895873	          0.05001273	          0.05895931	          0.05896029	          0.06952236	          0.10278741	          0.05000001	          0.05000002	          0.17003705	          0.05000021	          0.05000005	          0.05000003	          0.09754326	          0.10014915	          0.08588847	          0.05855232	          0.05000053	          0.05895864	          0.05000000	          0.05000019	          0.05000032	          0.49326914	          0.37629601	          0.21687584	          0.28054910	          0.53883310	          0.27431683	          0.07245426	          0.11130926	          0.11398773	
          1.08578977	         -2.92512878	         -2.30191853	          5.60086437	          1.35979028	          0.85741594	         -0.00212260	        -17.99413734	         -1.93201235	          6.91528379	         31.07254048	          3.45586143	         -1.65024546	         -7.95101680	        -14.53400344	          0.70714185	          6.80819775	         10.57036199	         -3.51587524	          0.98708982	          0.04181950	         21.78326871	         -0.10771908	         -1.81841080	          0.77384549	         -1.99861933	          7.71497192	        -13.45943869	         17.37741090	         -9.55668449	        -13.50714079	          6.98868348	         35.96998225	         13.84049833	         86.51662706	         86.51662706	          0.27738653	          0.09666739	          0.06952243	          0.28331584	          0.18790426	          0.09666755	          0.05000091	          0.05000011	          0.05000017	          0.06495638	          0.09666772	          0.12083401	          0.06422979	          0.06381683	          0.05000167	          0.06952177	          0.27890424	          0.06011338	          0.05000064	          0.05000046	          0.05000034	          0.05000035	          0.32814589	          0.56930192	          0.05000010	          0.05864093	          0.05895867	          0.17009866	          0.05000047	          0.18687189	          0.16913853	          0.28171101	          0.37849489	          0.26881755	          0.24847547	          0.24640124	          0.32767509	          0.05000000	          0.05048106	          0.16006616	          0.05000002	          0.05000000	          0.05000002	          0.05000000	          0.06952247	          0.05000000	          0.06318894	          0.05893128	          0.05000002	          0.05895876	          0.05895864	          0.05000013	          0.05000001	          0.05000005	          0.17767380	          0.05000007	          0.05000033	          0.09321632	          0.13551109	          0.23448545	          0.17778657	          0.09969464	          0.05000008	          0.05000051	          0.05000063	          0.05000171	          0.05895862	          0.11616948	          0.05183661	          0.06411898	          0.51614673	          0.13352080	          0.08125583	          0.06952250	          0.18703691	          0.19170333	          0.16602356	          0.05000000	          0.05000000	          0.05000000	          0.05000004	          0.05895872	          0.05011307	          0.54643467	          0.33488984	          0.22638023	          0.43968057	          0.57437707	          0.24733868	          0.06144497	          0.09439602	          0.09666750	
          1.09654016	         -2.91661582	         -2.39524471	          5.87029506	          1.37608261	          0.85636290	         -0.00193678	        -17.79049084	         -2.22489356	          6.67817195	         30.36591335	          3.76365991	         -1.38836630	        -10.01411237	        -14.94945414	         -0.17418267	          6.18906076	         11.48305752	         -4.01642413	          0.93000816	         -0.03177416	         22.76036202	         -0.15221660	         -1.60864520	          0.99983330	         -2.06328162	          7.51536878	        -13.46575689	         17.55479817	        -10.59142666	        -13.50240182	          6.90549504	         37.03514792	         13.72564366	         86.51662706	         86.51662706	          0.35168657	          0.08197896	          0.05895863	          0.24026655	          0.15935256	          0.08197910	          0.05000041	          0.05000014	          0.05000014	          0.05508638	          0.08197928	          0.14360079	          0.11872504	          0.05895904	          0.05895880	          0.05895868	          0.23652533	          0.08728671	          0.05310153	          0.05000209	          0.05000285	          0.05895846	          0.27828475	          0.54201468	          0.05895857	          0.05000028	          0.05000003	          0.14425248	          0.09600387	          0.15847717	          0.14343839	          0.23890554	          0.32098328	          0.22797121	          0.21072009	          0.20896107	          0.27788549	          0.05000000	          0.05000006	          0.17983129	          0.05000001	          0.05000000	          0.05000002	          0.05610570	          0.05895866	          0.05000064	          0.26149259	          0.05000001	          0.29631915	          0.05000010	          0.05000003	          0.23243686	          0.07595441	          0.05000009	          0.16101338	          0.05000002	          0.05000008	          0.08198391	          0.23289637	          0.19885591	          0.15077323	          0.13322408	          0.05000009	          0.05895973	          0.12426112	          0.05000002	          0.05000002	          0.10051692	          0.05895862	          0.05443715	          0.43771918	          0.11323258	          0.15543273	          0.05895869	          0.15861701	          0.16257437	          0.14079659	          0.06030186	          0.05895979	          0.05895868	          0.05895865	          0.05000008	          0.05000008	          0.46340492	          0.34831275	          0.19198219	          0.37287195	          0.58096757	          0.20975602	          0.05210852	          0.10288878	          0.08197905	
          1.10729055	         -2.90575627	         -2.48781161	          6.10807694	          1.39251978	          0.85533218	         -0.00174065	        -17.49206085	         -2.50851081	          6.43583709	         29.53291763	          4.03361916	         -1.11627728	        -12.22464769	        -15.38809755	         -1.20667644	          5.73595523	         12.33770587	         -4.51075462	          0.86571588	         -0.01949606	         23.54897880	         -0.16024007	         -1.39216041	          1.23082723	         -2.11886329	          7.25091944	        -13.47518681	         17.67436245	        -11.60737683	        -13.50075273	          6.86726622	         38.05706586	         13.64252063	         86.51662706	         86.51662706	          0.30641771	          0.06952241	          0.05000002	          0.35208164	          0.13513925	          0.06952253	          0.05000059	          0.05000003	          0.05000002	          0.05000004	          0.06952285	          0.13155802	          0.10068501	          0.05000036	          0.05000023	          0.05000010	          0.25792417	          0.07402407	          0.05000010	          0.05000027	          0.05000016	          0.05000010	          0.23599993	          0.50505014	          0.05000001	          0.05000013	          0.05000008	          0.13441114	          0.08141632	          0.13439705	          0.12534232	          0.20260428	          0.27221046	          0.19333140	          0.17870156	          0.17720984	          0.23566132	          0.05000000	          0.09574766	          0.18376603	          0.05000003	          0.05000009	          0.05000003	          0.07552575	          0.05000000	          0.05000000	          0.31630062	          0.28867857	          0.36411870	          0.17943982	          0.21121413	          0.19711860	          0.06441330	          0.09205166	          0.13654769	          0.08197904	          0.05007660	          0.06952661	          0.19750819	          0.16864014	          0.12786356	          0.15182875	          0.05000007	          0.05000097	          0.10537993	          0.22165576	          0.16859050	          0.12936227	          0.05000001	          0.05000001	          0.37120856	          0.09602714	          0.13181505	          0.05000003	          0.13451547	          0.13789109	          0.11940286	          0.05113911	          0.05000097	          0.05000002	          0.05000000	          0.05895867	          0.05433652	          0.58833098	          0.42621101	          0.21873335	          0.63468824	          0.63820014	          0.33072407	          0.07713307	          0.09058041	          0.06952248	
